<?xml version="1.0" encoding="UTF-8"?>
<svg width="18px" height="18px" viewBox="0 0 18 18" version="1.1" xmlns="http://www.w3.org/2000/svg" xmlns:xlink="http://www.w3.org/1999/xlink">
    <!-- Generator: Sketch 47.1 (45422) - http://www.bohemiancoding.com/sketch -->
    <title>ic/24/social/facebook</title>
    <desc>Created with Sketch.</desc>
    <defs>
        <path d="M19.4999883,3 C20.3400117,3 21,3.65998828 21,4.50001172 L21,19.4999883 C21,20.3400117 20.3400117,21 19.5000234,21 L15.0000234,21 L11.4000234,21 L4.50001172,21 C3.65998828,21 3,20.3400117 3,19.5000234 L3,4.50001172 C3,3.65998828 3.65998828,3 4.50001172,3 L19.4999883,3 Z M12.051863,14.2608682 L12.051863,20.2000008 L14.3037258,20.2000008 L14.3037258,14.2608682 L17.1185296,14.2608682 L17.1185296,11.9652087 L14.3036928,11.9652087 L14.3036928,9.95652773 C14.3036928,9.46869127 14.6696078,9.09565964 15.1481373,9.09565964 L17.4000001,9.09565964 L17.4000001,6.80000019 L14.8666668,6.80000019 C13.2903925,6.94348942 12.051863,8.32087836 12.051863,9.95652773 L12.051863,11.9652087 L9.80000019,11.9652087 L9.80000019,14.2608682 L12.051863,14.2608682 Z M19.3214269,20.1999996 C19.8192962,20.1999996 20.1999996,19.8192962 20.2000339,19.3214269 L20.2000339,4.67857259 C20.2000339,4.18070332 19.8193305,3.79999995 19.3214613,3.79999995 L4.67857259,3.79999995 C4.18070332,3.79999995 3.79999995,4.18070332 3.79999995,4.67857259 L3.79999995,19.3214269 C3.79999995,19.8192962 4.18070332,20.1999996 4.67857259,20.1999996 L11.4142732,20.2000008 L11.4142732,14.9285638 L9.07140144,14.9285638 L9.07140144,11.4142732 L11.4142732,11.4142732 L11.4142732,9.94997407 C11.4142732,7.98783996 12.9371553,6.31855196 14.8992895,6.14283743 L18.1500082,6.14283743 L18.1500082,9.65712796 L15.2214099,9.65712796 C15.0456953,9.65712796 14.9285638,9.77425954 14.9285638,9.94997407 L14.9285638,11.4142732 L17.8571278,11.4142732 L17.8571278,14.9285638 L14.9285638,14.9285638 L14.9285638,20.1999996 L19.3214269,20.1999996 Z" id="path-1"></path>
    </defs>
    <g id="Page-1" stroke="none" stroke-width="1" fill="none" fill-rule="evenodd">
        <g id="Stores-/-Desktop" transform="translate(-84.000000, -1730.000000)">
            <g id="footer" transform="translate(0.000000, 1469.000000)">
                <g id="social" transform="translate(81.000000, 222.000000)">
                    <g id="ic/24/social/facebook" transform="translate(0.000000, 36.000000)">
                        <mask id="mask-2" fill="white">
                            <use xlink:href="#path-1"></use>
                        </mask>
                        <use id="Shape" fill="#FFFFFF" fill-rule="nonzero" xlink:href="#path-1"></use>
                    </g>
                </g>
            </g>
        </g>
    </g>
</svg>