<?xml version="1.0" encoding="UTF-8"?>
<svg width="192px" height="21px" viewBox="0 0 192 21" version="1.1" xmlns="http://www.w3.org/2000/svg" xmlns:xlink="http://www.w3.org/1999/xlink">
    <!-- Generator: Sketch 47.1 (45422) - http://www.bohemiancoding.com/sketch -->
    <title>white-logo</title>
    <desc>Created with Sketch.</desc>
    <defs></defs>
    <g id="Page-1" stroke="none" stroke-width="1" fill="none" fill-rule="evenodd">
        <g id="Stores-/-Desktop" transform="translate(-81.000000, -1524.000000)" fill-rule="nonzero">
            <g id="footer" transform="translate(0.000000, 1469.000000)">
                <g id="white-logo" transform="translate(81.000000, 56.000000)">
                    <g id="XMLID_234_" fill="#FFFFFF">
                        <path d="M15.0769231,0.846153846 L15.0769231,11.4615385 C15.0769231,15 13.5384615,16.4615385 9.84615384,16.4615385 C6.15384616,16.4615385 4.61538462,15 4.61538462,11.4615385 L4.61538462,0.384615384 L1.07692308,0.384615384 C0.846153846,0.384615384 0.615384616,0.615384616 0.615384616,0.846153846 L0.615384616,11.6153846 C0.615384616,17.5384615 4.38461538,19.6153846 9.84615384,19.6153846 C15.3076923,19.6153846 19.0769231,17.5384615 19.0769231,11.6153846 L19.0769231,0.384615384 L15.5384615,0.384615384 C15.3076923,0.384615384 15.0769231,0.538461538 15.0769231,0.846153846 L15.0769231,0.846153846 Z" id="XMLID_243_"></path>
                        <path d="M66.5384616,3.46153846 C66.8461538,3.46153846 67,3.38461538 67.076923,3.15384616 L68.076923,0.615384616 C68.1538462,0.461538462 68.076923,0.384615384 67.923077,0.384615384 L53.6153846,0.384615384 C52.3076924,0.384615384 51.7692308,0.76923077 51.7692308,1.69230769 L51.7692308,18.1538462 C51.7692308,18.9230769 52.1538462,19.3076923 53.1538462,19.3076923 L66.4615384,19.3076923 C66.7692308,19.3076923 66.923077,19.2307692 67,19 L68,16.4615385 C68.076923,16.3076923 68,16.2307692 67.8461538,16.2307692 L55.6923076,16.2307692 L55.6923076,12.8461538 C55.6923076,11.6923077 56.3076924,11.1538462 58.076923,11.1538462 L63.3846154,11.1538462 C63.6923076,11.1538462 63.8461538,11.0769231 63.923077,10.8461538 L64.923077,8.38461538 C65,8.23076924 64.923077,8.15384616 64.7692308,8.15384616 L55.7692308,8.15384616 L55.7692308,3.38461538 L66.5384616,3.38461538 L66.5384616,3.46153846 Z" id="XMLID_242_"></path>
                        <path d="M41.3846154,9.3076923 C42.923077,8.46153846 43.5384616,7 43.5384616,5.15384616 C43.5384616,1 40.1538462,0.384615384 36.6153846,0.384615384 L28.5384616,0.384615384 C27.2307692,0.384615384 26.6923076,0.76923077 26.6923076,1.69230769 L26.6923076,18.1538462 C26.6923076,18.9230769 27.076923,19.3076923 28.076923,19.3076923 L38,19.3076923 C41.7692308,19.3076923 44.3846154,17.8461538 44.3846154,14.0769231 C44.4615384,11.7692308 43.5384616,9.84615384 41.3846154,9.3076923 L41.3846154,9.3076923 Z M30.6923076,3.38461538 L36.923077,3.38461538 C39,3.38461538 39.6153846,4.15384616 39.6153846,5.76923076 C39.6153846,7.38461538 39,8.15384616 36.923077,8.15384616 L30.6923076,8.15384616 L30.6923076,3.38461538 L30.6923076,3.38461538 Z M37.6923076,16.2307692 L30.6923076,16.2307692 L30.6923076,12.7692308 C30.6923076,11.6153846 31.3076924,11.0769231 33.076923,11.0769231 L37.6923076,11.0769231 C39.923077,11.0769231 40.5384616,11.9230769 40.5384616,13.6923077 C40.5384616,15.4615385 39.923077,16.2307692 37.6923076,16.2307692 L37.6923076,16.2307692 Z" id="XMLID_238_"></path>
                        <path d="M92.8461538,19 L88.6153846,11.6923077 C90.6923076,11.1538462 92.4615384,9.76923076 92.4615384,6.23076924 C92.4615384,1.61538462 89.6153846,0.384615384 84.923077,0.384615384 L76.8461538,0.384615384 C75.5384616,0.384615384 75,0.76923077 75,1.69230769 L75,18.8461538 C75,19.0769231 75.2307692,19.3076923 75.4615384,19.3076923 L78.923077,19.3076923 L78.923077,13.7692308 C78.923077,12.6153846 79.5384616,12.0769231 81.3076924,12.0769231 L84.7692308,12.0769231 L88.6153846,19 C88.7692308,19.2307692 88.8461538,19.3076923 89.1538462,19.3076923 L92.7692308,19.3076923 C92.923077,19.3076923 92.923077,19.0769231 92.8461538,19 L92.8461538,19 Z M85.4615384,9.15384616 L78.8461538,9.15384616 L78.8461538,3.38461538 L85.4615384,3.38461538 C87.923077,3.38461538 88.4615384,4.3076923 88.4615384,6.23076924 C88.4615384,8.23076924 87.923077,9.15384616 85.4615384,9.15384616 L85.4615384,9.15384616 Z" id="XMLID_235_"></path>
                    </g>
                    <g id="XMLID_224_" transform="translate(107.692308, 0.000000)" stroke-width="0.25" stroke="#57AD56" fill="#57AD56">
                        <polygon id="XMLID_232_" points="14.6153846 17.6153846 14.5384615 19.3076923 0.538461538 19.3076923 0.538461538 0.384615384 14 0.384615384 14.0769231 2.15384616 2.46153846 2.15384616 2.46153846 8.6923077 12.4615385 8.6923077 12.4615385 10.2307692 2.46153846 10.2307692 2.46153846 17.6153846"></polygon>
                        <path d="M37.3846154,14.3846154 L26.2307692,14.3846154 L24.076923,19.3076923 L22,19.3076923 L30.7692308,0.384615384 L33,0.384615384 L41.6923076,19.3076923 L39.5384616,19.3076923 L37.3846154,14.3846154 L37.3846154,14.3846154 Z M31,3.61538462 L26.923077,12.7692308 L36.6153846,12.7692308 L32.6153846,3.61538462 L31.8461538,1.69230769 L31.7692308,1.69230769 L31,3.61538462 L31,3.61538462 Z" id="XMLID_229_"></path>
                        <polygon id="XMLID_227_" points="55.5384616 2.15384616 55.5384616 19.3076923 53.6153846 19.3076923 53.6153846 2.15384616 46.5384616 2.15384616 46.6153846 0.384615384 62.6923076 0.384615384 62.6923076 2.15384616"></polygon>
                        <path d="M76.3846154,19.6923077 C73.7692308,19.6923077 71.6923076,19.0769231 70,18.0769231 L70.3076924,16.3846154 C72.076923,17.3846154 74.076923,18 76.4615384,18 C80,18 81.8461538,16.3846154 81.8461538,14.0769231 C81.8461538,9.07692308 70.3076924,11.6923077 70.3076924,5.23076924 C70.3076924,2.46153846 72.3846154,0 77.2307692,0 C79.4615384,0 81.4615384,0.384615384 83.076923,1.15384615 L82.7692308,2.76923076 C81,2.07692308 79.3076924,1.69230769 77.3076924,1.69230769 C73.5384616,1.69230769 72.1538462,3.38461538 72.1538462,5.07692308 C72.1538462,9.84615384 83.6923076,7.15384616 83.6923076,13.9230769 C83.6153846,17.3076923 81.1538462,19.6923077 76.3846154,19.6923077 L76.3846154,19.6923077 Z" id="XMLID_225_"></path>
                    </g>
                </g>
            </g>
        </g>
    </g>
</svg>