<?xml version="1.0" encoding="UTF-8"?>
<svg width="18px" height="18px" viewBox="0 0 18 18" version="1.1" xmlns="http://www.w3.org/2000/svg" xmlns:xlink="http://www.w3.org/1999/xlink">
    <!-- Generator: Sketch 47.1 (45422) - http://www.bohemiancoding.com/sketch -->
    <title>ic/24/social/instagram</title>
    <desc>Created with Sketch.</desc>
    <defs>
        <path d="M16.0325443,3 C18.7716932,3 21.0001065,5.22841324 21,7.96734926 L21,16.0326507 C21,18.7715868 18.7716932,21 16.0325443,21 L7.96724279,21 C5.22830678,21 3,18.7716932 3,16.0326507 L3,7.96734926 C3,5.22841324 5.22830678,3 7.96724279,3 L16.0325443,3 Z M20.0001151,16.3578835 L20,16.3578835 L20,7.64211647 C20,5.63391868 18.3660813,4 16.3577685,4 L7.64200141,4 C5.63380363,4 4,5.63391868 4,7.64211647 L4,16.3578835 C4,18.3661964 5.63380363,20.0001151 7.64200141,20 L16.3578835,20 C18.3661964,20 20.0001151,18.3661964 20.0001151,16.3578835 Z M12,7.36206835 C14.5575114,7.36206835 16.6381446,9.44270149 16.6381446,12.0002129 C16.6381446,14.5576179 14.5575114,16.6381446 12,16.6381446 C9.44248855,16.6381446 7.36185541,14.5576179 7.36185541,12.0002129 C7.36185541,9.44270149 9.44248855,7.36206835 12,7.36206835 Z M11.9999998,15.8397308 C14.1172899,15.8397308 15.8399997,14.1172899 15.8399997,11.9999998 C15.8399997,9.88257517 14.1174244,8.15999985 11.9999998,8.15999985 C9.88257517,8.15999985 8.15999985,9.88257517 8.15999985,11.9999998 C8.15999985,14.1172899 9.88270961,15.8397308 11.9999998,15.8397308 Z M17.0000008,5.5999999 C17.2109099,5.5999999 17.4174553,5.68509081 17.565819,5.83418173 C17.7149099,5.98254536 17.8000008,6.18909082 17.8000008,6.39999992 C17.8000008,6.61018174 17.7149099,6.8167272 17.565819,6.96581811 C17.4167281,7.11418175 17.2109099,7.19999993 17.0000008,7.19999993 C16.789819,7.19999993 16.5832735,7.11418175 16.4349099,6.96581811 C16.2858189,6.8167272 16.2000008,6.61025447 16.2000008,6.39999992 C16.2000008,6.18909082 16.2857462,5.98254536 16.4349099,5.83418173 C16.5833462,5.68509081 16.789819,5.5999999 17.0000008,5.5999999 Z" id="path-1"></path>
    </defs>
    <g id="Page-1" stroke="none" stroke-width="1" fill="none" fill-rule="evenodd">
        <g id="Stores-/-Desktop" transform="translate(-156.000000, -1730.000000)">
            <g id="footer" transform="translate(0.000000, 1469.000000)">
                <g id="social" transform="translate(81.000000, 222.000000)">
                    <g id="ic/24/social/instagram" transform="translate(72.000000, 36.000000)">
                        <mask id="mask-2" fill="white">
                            <use xlink:href="#path-1"></use>
                        </mask>
                        <use id="Combined-Shape" fill="#FFFFFF" fill-rule="nonzero" xlink:href="#path-1"></use>
                    </g>
                </g>
            </g>
        </g>
    </g>
</svg>