<?xml version="1.0" encoding="UTF-8"?>
<svg width="120px" height="14px" viewBox="0 0 120 14" version="1.1" xmlns="http://www.w3.org/2000/svg" xmlns:xlink="http://www.w3.org/1999/xlink">
    <!-- Generator: Sketch 47.1 (45422) - http://www.bohemiancoding.com/sketch -->
    <title>logo</title>
    <desc>Created with Sketch.</desc>
    <defs></defs>
    <g id="Page-1" stroke="none" stroke-width="1" fill="none" fill-rule="evenodd">
        <g id="Restaurant-/-Desktop" transform="translate(-81.000000, -29.000000)" fill-rule="nonzero">
            <g id="header">
                <g id="logo" transform="translate(81.000000, 30.000000)">
                    <g id="XMLID_234_" fill="#000000">
                        <path d="M9.42307692,0.528846154 L9.42307692,7.16346154 C9.42307692,9.375 8.46153846,10.2884615 6.15384615,10.2884615 C3.84615385,10.2884615 2.88461539,9.375 2.88461539,7.16346154 L2.88461539,0.240384615 L0.673076922,0.240384615 C0.528846154,0.240384615 0.384615385,0.384615385 0.384615385,0.528846154 L0.384615385,7.25961539 C0.384615385,10.9615385 2.74038461,12.2596154 6.15384615,12.2596154 C9.56730769,12.2596154 11.9230769,10.9615385 11.9230769,7.25961539 L11.9230769,0.240384615 L9.71153846,0.240384615 C9.56730769,0.240384615 9.42307692,0.336538461 9.42307692,0.528846154 L9.42307692,0.528846154 Z" id="XMLID_243_"></path>
                        <path d="M41.5865385,2.16346154 C41.7788461,2.16346154 41.875,2.11538461 41.9230769,1.97115385 L42.5480769,0.384615385 C42.5961539,0.288461539 42.5480769,0.240384615 42.4519231,0.240384615 L33.5096154,0.240384615 C32.6923077,0.240384615 32.3557692,0.480769231 32.3557692,1.05769231 L32.3557692,11.3461539 C32.3557692,11.8269231 32.5961539,12.0673077 33.2211539,12.0673077 L41.5384615,12.0673077 C41.7307692,12.0673077 41.8269231,12.0192308 41.875,11.875 L42.5,10.2884615 C42.5480769,10.1923077 42.5,10.1442308 42.4038461,10.1442308 L34.8076922,10.1442308 L34.8076922,8.02884615 C34.8076922,7.30769231 35.1923077,6.97115385 36.2980769,6.97115385 L39.6153846,6.97115385 C39.8076922,6.97115385 39.9038461,6.92307693 39.9519231,6.77884615 L40.5769231,5.24038461 C40.625,5.14423078 40.5769231,5.09615385 40.4807692,5.09615385 L34.8557692,5.09615385 L34.8557692,2.11538461 L41.5865385,2.11538461 L41.5865385,2.16346154 Z" id="XMLID_242_"></path>
                        <path d="M25.8653846,5.81730769 C26.8269231,5.28846154 27.2115385,4.375 27.2115385,3.22115385 C27.2115385,0.625 25.0961539,0.240384615 22.8846154,0.240384615 L17.8365385,0.240384615 C17.0192307,0.240384615 16.6826922,0.480769231 16.6826922,1.05769231 L16.6826922,11.3461539 C16.6826922,11.8269231 16.9230769,12.0673077 17.5480769,12.0673077 L23.75,12.0673077 C26.1057693,12.0673077 27.7403846,11.1538461 27.7403846,8.79807693 C27.7884615,7.35576923 27.2115385,6.15384615 25.8653846,5.81730769 L25.8653846,5.81730769 Z M19.1826922,2.11538461 L23.0769231,2.11538461 C24.375,2.11538461 24.7596154,2.59615385 24.7596154,3.60576923 C24.7596154,4.61538461 24.375,5.09615385 23.0769231,5.09615385 L19.1826922,5.09615385 L19.1826922,2.11538461 L19.1826922,2.11538461 Z M23.5576922,10.1442308 L19.1826922,10.1442308 L19.1826922,7.98076923 C19.1826922,7.25961539 19.5673078,6.92307693 20.6730769,6.92307693 L23.5576922,6.92307693 C24.9519231,6.92307693 25.3365385,7.45192308 25.3365385,8.55769231 C25.3365385,9.66346154 24.9519231,10.1442308 23.5576922,10.1442308 L23.5576922,10.1442308 Z" id="XMLID_238_"></path>
                        <path d="M58.0288461,11.875 L55.3846154,7.30769231 C56.6826923,6.97115385 57.7884615,6.10576922 57.7884615,3.89423077 C57.7884615,1.00961539 56.0096154,0.240384615 53.0769231,0.240384615 L48.0288461,0.240384615 C47.2115385,0.240384615 46.875,0.480769231 46.875,1.05769231 L46.875,11.7788461 C46.875,11.9230769 47.0192307,12.0673077 47.1634615,12.0673077 L49.3269231,12.0673077 L49.3269231,8.60576922 C49.3269231,7.88461539 49.7115385,7.54807692 50.8173078,7.54807692 L52.9807693,7.54807692 L55.3846154,11.875 C55.4807693,12.0192308 55.5288461,12.0673077 55.7211539,12.0673077 L57.9807693,12.0673077 C58.0769231,12.0673077 58.0769231,11.9230769 58.0288461,11.875 L58.0288461,11.875 Z M53.4134615,5.72115385 L49.2788461,5.72115385 L49.2788461,2.11538461 L53.4134615,2.11538461 C54.9519231,2.11538461 55.2884615,2.69230769 55.2884615,3.89423078 C55.2884615,5.14423078 54.9519231,5.72115385 53.4134615,5.72115385 L53.4134615,5.72115385 Z" id="XMLID_235_"></path>
                    </g>
                    <g id="XMLID_224_" transform="translate(67.307693, 0.000000)" stroke-width="0.25" stroke="#57AD56" fill="#57AD56">
                        <polygon id="XMLID_232_" points="9.13461539 11.0096154 9.08653846 12.0673077 0.336538461 12.0673077 0.336538461 0.240384615 8.75 0.240384615 8.79807692 1.34615385 1.53846154 1.34615385 1.53846154 5.43269231 7.78846154 5.43269231 7.78846154 6.39423078 1.53846154 6.39423078 1.53846154 11.0096154"></polygon>
                        <path d="M23.3653846,8.99038461 L16.3942307,8.99038461 L15.0480769,12.0673077 L13.75,12.0673077 L19.2307692,0.240384615 L20.625,0.240384615 L26.0576922,12.0673077 L24.7115385,12.0673077 L23.3653846,8.99038461 L23.3653846,8.99038461 Z M19.375,2.25961539 L16.8269231,7.98076923 L22.8846154,7.98076923 L20.3846154,2.25961539 L19.9038461,1.05769231 L19.8557692,1.05769231 L19.375,2.25961539 L19.375,2.25961539 Z" id="XMLID_229_"></path>
                        <polygon id="XMLID_227_" points="34.7115385 1.34615385 34.7115385 12.0673077 33.5096154 12.0673077 33.5096154 1.34615385 29.0865385 1.34615385 29.1346154 0.240384615 39.1826922 0.240384615 39.1826922 1.34615385"></polygon>
                        <path d="M47.7403846,12.3076923 C46.1057692,12.3076923 44.8076922,11.9230769 43.75,11.2980769 L43.9423077,10.2403846 C45.0480769,10.8653846 46.2980769,11.25 47.7884615,11.25 C50,11.25 51.1538461,10.2403846 51.1538461,8.79807693 C51.1538461,5.67307693 43.9423077,7.30769231 43.9423077,3.26923078 C43.9423077,1.53846154 45.2403846,0 48.2692307,0 C49.6634615,0 50.9134615,0.240384615 51.9230769,0.721153846 L51.7307692,1.73076923 C50.625,1.29807693 49.5673077,1.05769231 48.3173077,1.05769231 C45.9615385,1.05769231 45.0961539,2.11538461 45.0961539,3.17307693 C45.0961539,6.15384615 52.3076922,4.47115385 52.3076922,8.70192308 C52.2596154,10.8173077 50.7211539,12.3076923 47.7403846,12.3076923 L47.7403846,12.3076923 Z" id="XMLID_225_"></path>
                    </g>
                </g>
            </g>
        </g>
    </g>
</svg>