<?xml version="1.0" encoding="UTF-8"?>
<svg width="22px" height="22px" viewBox="0 0 22 22" version="1.1" xmlns="http://www.w3.org/2000/svg" xmlns:xlink="http://www.w3.org/1999/xlink">
    <!-- Generator: Sketch 47.1 (45422) - http://www.bohemiancoding.com/sketch -->
    <title>search</title>
    <desc>Created with Sketch.</desc>
    <defs></defs>
    <g id="Page-1" stroke="none" stroke-width="1" fill="none" fill-rule="evenodd">
        <g id="Stores-/-Desktop" transform="translate(-81.000000, -112.000000)" fill-rule="nonzero" fill="#262626">
            <g id="search" transform="translate(81.000000, 104.000000)">
                <g transform="translate(0.000000, 8.000000)" id="Shape">
                    <path d="M16.5,8.2 C16.5,3.6 12.8,0 8.3,0 C3.7,0 0,3.7 0,8.2 C0,12.8 3.7,16.4 8.2,16.4 C10.2,16.4 12.1,15.6 13.6,14.4 L21.1,21.9 L22,21 L14.5,13.5 C15.7,12.2 16.5,10.3 16.5,8.2 Z M8.2,15.2 C4.4,15.2 1.2,12.1 1.2,8.2 C1.2,4.4 4.3,1.2 8.2,1.2 C12.1,1.2 15.2,4.3 15.2,8.2 C15.2,12.1 12.1,15.2 8.2,15.2 Z"></path>
                </g>
            </g>
        </g>
    </g>
</svg>