<?xml version="1.0" encoding="UTF-8"?>
<svg width="18px" height="16px" viewBox="0 0 18 16" version="1.1" xmlns="http://www.w3.org/2000/svg" xmlns:xlink="http://www.w3.org/1999/xlink">
    <!-- Generator: Sketch 47.1 (45422) - http://www.bohemiancoding.com/sketch -->
    <title>ic/24/social/twitter</title>
    <desc>Created with Sketch.</desc>
    <defs>
        <path d="M20.8968825,6.18859884 C20.9885249,6.2823269 21.0190841,6.43856434 20.9885601,6.5635831 C20.7135978,7.46975306 20.1636731,8.12595751 19.4915116,8.46968708 L19.4915116,8.56341514 C19.4915116,14.594166 15.0920084,19.5 9.71485732,19.5 C6.69020106,19.5 4.2460639,18.9687783 3.1461793,18.0626083 C3.02397772,17.9376256 2.96285933,17.7813881 3.02397772,17.593896 C3.0850609,17.4376586 3.23782168,17.3126758 3.42114165,17.3126758 C5.22371172,17.2814211 6.38467951,16.8439635 7.27068495,16.3127418 C5.55975726,16.093995 4.49043185,15.2503344 3.94050715,13.6567053 C3.87938876,13.5004679 3.94050715,13.3442664 4.06270873,13.2505024 C4.1849103,13.1567383 4.36823027,13.1567383 4.49043185,13.2192477 C4.94871417,13.5317226 5.40699648,13.5942319 5.95692118,13.5942319 C4.79595339,12.8755541 3.72662798,11.688128 3.29890486,10.2195176 C3.26834567,10.0632802 3.32946406,9.87582405 3.45166563,9.81331467 C3.60442641,9.71958661 3.75718718,9.7508413 3.87938876,9.84456936 C4.2154695,10.1257896 4.58210944,10.3132817 5.13203414,10.4070097 C3.94050715,9.15711022 3.20726248,7.31351562 4.24602869,5.28242888 L4.42934866,4.90744462 L4.7347998,5.2199195 C6.62904746,7.25100624 8.37049915,8.18843088 11.5479162,8.81338065 L11.5479162,8.68839789 C11.5479162,6.40734566 13.2893679,4.53249637 15.4585779,4.50124168 C16.3140241,4.50124168 17.5055511,5.12619144 17.9943926,5.40741163 C18.0249518,5.40741163 18.055511,5.43866632 18.055511,5.40741163 C18.6665541,5.21995551 19.3997988,4.90748063 20.255245,4.53249637 C20.3774818,4.470023 20.5302426,4.50127769 20.621885,4.59500575 C20.7135625,4.68876982 20.7441217,4.81375257 20.6830033,4.96999001 C20.5302426,5.40744764 20.2858394,5.87615996 19.9191995,6.3136176 L20.5302426,6.09487078 C20.6524794,6.06361609 20.8052401,6.09487078 20.8968825,6.18859884 Z M18.9132972,8.17735174 C19.4764549,7.96611592 19.8025044,7.51342302 20.0099998,7.12113786 L18.8540372,7.51345779 C18.705836,7.57383076 18.5280218,7.51345779 18.4687277,7.36256016 C18.4094335,7.21166253 18.4390806,7.03057841 18.5576348,6.94005374 C19.0318513,6.54769903 19.3875479,6.12519261 19.6543032,5.67249972 C19.0614984,5.91392202 18.5279877,6.12519261 18.0833841,6.27609025 C17.9055699,6.33642843 17.7277217,6.30624195 17.5498734,6.21571728 C17.2238581,6.03463317 16.0975084,5.40085615 15.4157965,5.43104264 C13.637382,5.46122912 12.2146641,7.00039193 12.2146641,8.87150171 L12.2146641,9.71651455 L11.8589675,9.65614158 C8.59857514,9.05255105 6.79051359,8.17735174 4.89354497,6.27605547 C4.00433773,8.56970645 5.8420122,10.1692074 6.4644641,10.6219003 L7.20543598,11.1651527 L6.28658167,11.1651527 C5.69377684,11.1651527 5.04171202,11.1047797 4.4489072,10.8331709 C5.10100617,12.2214013 6.43481703,13.2474983 7.56113254,13.57948 L7.47222548,14.1830706 C7.23511721,14.1830706 6.99797478,14.1830706 6.76086651,14.2132571 C6.13841461,14.2434435 5.57525686,14.2434435 5.04174618,14.0623594 C5.63455101,15.2091675 6.67195945,15.6920469 8.36143272,15.6920469 L9.25063996,15.6920469 L8.50963392,16.2352645 C7.59077961,16.9595662 6.40516996,17.6235296 4.36000013,17.7744273 C5.33811444,18.2573067 7.14614183,18.7099996 9.84341063,18.7099996 C14.4647151,18.7099996 18.7354489,13.998994 18.7354489,8.75079056 L18.7354489,8.2377247 L18.9132972,8.17735174 Z" id="path-1"></path>
    </defs>
    <g id="Page-1" stroke="none" stroke-width="1" fill="none" fill-rule="evenodd">
        <g id="Stores-/-Desktop" transform="translate(-120.000000, -1731.000000)">
            <g id="footer" transform="translate(0.000000, 1469.000000)">
                <g id="social" transform="translate(81.000000, 222.000000)">
                    <g id="ic/24/social/twitter" transform="translate(36.000000, 36.000000)">
                        <mask id="mask-2" fill="white">
                            <use xlink:href="#path-1"></use>
                        </mask>
                        <use id="Shape" fill="#FFFFFF" fill-rule="nonzero" xlink:href="#path-1"></use>
                    </g>
                </g>
            </g>
        </g>
    </g>
</svg>