<?xml version="1.0" encoding="UTF-8"?>
<svg width="16px" height="16px" viewBox="0 0 16 16" version="1.1" xmlns="http://www.w3.org/2000/svg" xmlns:xlink="http://www.w3.org/1999/xlink">
    <!-- Generator: Sketch 47.1 (45422) - http://www.bohemiancoding.com/sketch -->
    <title>world</title>
    <desc>Created with Sketch.</desc>
    <defs></defs>
    <g id="Page-1" stroke="none" stroke-width="1" fill="none" fill-rule="evenodd">
        <g id="Stores-/-Desktop" transform="translate(-97.000000, -1630.000000)" fill-rule="nonzero" fill="#FFFFFF">
            <g id="footer" transform="translate(0.000000, 1469.000000)">
                <g id="language" transform="translate(81.000000, 149.000000)">
                    <g id="world" transform="translate(16.000000, 12.000000)">
                        <path d="M8.33740351,0.165894737 C8.25038596,0.156070175 8.16364912,0.141473684 8.07522807,0.141473684 C8.04940351,0.141473684 8.02414035,0.147929825 7.99859649,0.14877193 C7.9525614,0.147929825 7.90708772,0.141473684 7.86077193,0.141473684 C3.52701754,0.141473684 0.00112280702,3.66764912 0.00112280702,8.00112281 C0.00112280702,12.3351579 3.52701754,15.8607719 7.86077193,15.8607719 C7.90708772,15.8607719 7.9525614,15.8545965 7.99831579,15.8537544 C8.02414035,15.8545965 8.04940351,15.8607719 8.07522807,15.8607719 C8.16364912,15.8607719 8.25038596,15.8467368 8.33740351,15.8363509 C12.4491228,15.5882105 15.7204211,12.1743158 15.7204211,8.00112281 C15.7204211,3.82792982 12.4491228,0.414315789 8.33740351,0.165894737 Z M5.50792982,1.54385965 C4.71185965,2.46287719 4.06512281,3.78245614 3.71003509,5.34091228 C2.60575439,5.22105263 1.93936842,5.08154386 1.67073684,5.01698246 C2.45111877,3.40555505 3.82693893,2.16027174 5.50792982,1.54385965 L5.50792982,1.54385965 Z M0.980210526,8.00112281 C0.980210526,7.2802807 1.09249123,6.58526316 1.29880702,5.93235088 C1.48631579,5.98287719 2.20322807,6.16 3.53010526,6.30736842 C3.45090828,6.86848905 3.41085831,7.43444111 3.41024561,8.00112281 C3.41024561,8.74301754 3.48126316,9.45459649 3.60196491,10.130807 C2.4637193,10.2543158 1.76252632,10.4 1.44785965,10.4760702 C1.1399497,9.68719669 0.981372755,8.84795724 0.980210526,8.00112281 Z M1.87564912,11.3832982 C2.23157895,11.3075088 2.86933333,11.1927018 3.81192982,11.0941754 C4.18273684,12.4662456 4.78596491,13.6258246 5.50849123,14.4589474 C3.97126116,13.8965039 2.68364966,12.8065503 1.87508772,11.3832982 L1.87564912,11.3832982 Z M7.29824561,14.7921404 C6.45614035,14.4395789 5.216,12.9790877 4.70764912,11.0102456 C5.43859649,10.9560702 6.45614035,10.9173333 7.29824561,10.9072281 L7.29824561,14.7921404 Z M7.29824561,9.92870175 C6.45614035,9.93936842 5.31003509,9.98259649 4.5285614,10.0432281 C4.42105263,9.39480702 4.39045614,8.70877193 4.39045614,8.00112281 C4.39045614,7.45094737 4.40112281,6.91536842 4.46764912,6.39803509 C5.26119298,6.46091228 6.45614035,6.50610526 7.29824561,6.51733333 L7.29824561,9.92842105 L7.29824561,9.92870175 Z M7.29824561,5.53852632 C6.45614035,5.52814035 5.35522807,5.48547368 4.60238596,5.42792982 C5.0725614,3.23985965 6.45614035,1.58877193 7.29824561,1.21038596 L7.29824561,5.53824561 L7.29824561,5.53852632 Z M14.0255439,4.96308772 C13.872,5.01024561 13.2499649,5.1837193 12.0196491,5.32940351 C11.7420351,3.85291228 11.2409825,2.59480702 10.5875088,1.68645614 C12.085614,2.3357193 13.3038596,3.5045614 14.0255439,4.96280702 L14.0255439,4.96308772 Z M8.42105263,1.19578947 C9.26315789,1.54526316 10.6509474,3.21122807 11.1121404,5.42652632 C10.3713684,5.48547368 9.26315789,5.52842105 8.42105263,5.53880702 L8.42105263,1.19578947 Z M8.42105263,6.51733333 C9.26315789,6.50638596 10.4435088,6.46007018 11.2272281,6.39494737 C11.2917895,6.91312281 11.3080702,7.44954386 11.3080702,8.00112281 C11.3080702,8.70961404 11.282807,9.39677193 11.178386,10.0460351 C10.4067368,9.9837193 9.26315789,9.93880702 8.42105263,9.92870175 L8.42105263,6.51733333 L8.42105263,6.51733333 Z M8.42105263,14.8067368 L8.42105263,10.9072281 C9.26315789,10.9173333 10.2882807,10.9569123 11.0096842,11.0124912 C10.5100351,13.0077193 9.26315789,14.4808421 8.42105263,14.8070175 L8.42105263,14.8067368 Z M10.5875088,14.3163509 C11.1764211,13.4978246 11.6454737,12.3991579 11.9348772,11.1087719 C12.9027368,11.2202105 13.5124211,11.3498947 13.8197895,11.4273684 C13.0796581,12.7117505 11.9465938,13.7244729 10.5875088,14.3163509 L10.5875088,14.3163509 Z M12.1089123,10.1423158 C12.2957399,8.86846452 12.3155563,7.57568077 12.1678596,6.29670175 C13.6808421,6.11508772 14.3505965,5.8874386 14.3949474,5.8717193 L14.2369123,5.42540351 C14.5701954,6.24325942 14.7417812,7.11796612 14.7421754,8.00112281 C14.7421754,8.89459649 14.5653333,9.74652632 14.2537544,10.5302456 C13.9834386,10.4513684 13.3038596,10.282386 12.109193,10.1420351 L12.1089123,10.1423158 Z" id="Shape"></path>
                    </g>
                </g>
            </g>
        </g>
    </g>
</svg>